<?xml version="1.0" standalone="no"?>
<!DOCTYPE svg PUBLIC "-//W3C//DTD SVG 20010904//EN"
 "http://www.w3.org/TR/2001/REC-SVG-20010904/DTD/svg10.dtd">
<svg version="1.0" xmlns="http://www.w3.org/2000/svg"
 width="127.000000pt" height="127.000000pt" viewBox="0 0 127.000000 127.000000"
 preserveAspectRatio="xMidYMid meet">
<metadata>
Created by potrace 1.11, written by Peter Selinger 2001-2013
</metadata>
<g transform="translate(0.000000,127.000000) scale(0.100000,-0.100000)"
fill="#000000" stroke="none">
<path d="M776 1262 c-3 -5 1 -9 9 -9 8 0 12 4 9 9 -3 4 -7 8 -9 8 -2 0 -6 -4
-9 -8z"/>
<path d="M625 1249 c-3 -4 -25 -6 -50 -5 -24 2 -42 -1 -39 -5 3 -5 17 -6 32
-3 22 5 24 3 12 -6 -12 -9 -9 -11 17 -6 23 4 32 2 30 -7 -1 -7 7 -11 18 -10
11 2 27 -1 35 -6 12 -8 12 -13 -4 -30 -25 -27 -7 -52 32 -45 36 7 54 23 50 48
-2 15 -10 21 -30 21 -22 -1 -25 2 -15 14 10 12 7 13 -18 7 -22 -5 -26 -4 -15
4 16 10 9 13 -27 10 -13 -1 -23 3 -23 10 0 6 14 9 34 7 19 -2 40 0 48 4 8 5
-6 8 -35 7 -26 0 -50 -4 -52 -9z"/>
<path d="M730 1245 c-24 -14 -24 -14 -3 -15 12 0 25 5 28 11 11 17 2 18 -25 4z"/>
<path d="M840 1240 c-13 -8 -12 -10 3 -10 9 0 17 5 17 10 0 12 -1 12 -20 0z"/>
<path d="M772 1231 c-11 -7 -11 -9 0 -13 17 -6 38 1 38 13 0 11 -21 11 -38 0z"/>
<path d="M443 1203 c0 -8 6 -9 18 -2 26 13 33 11 19 -6 -15 -18 -9 -19 25 -3
36 16 31 23 -18 23 -28 0 -44 -4 -44 -12z"/>
<path d="M820 1210 c0 -5 9 -10 20 -10 11 0 20 5 20 10 0 6 -9 10 -20 10 -11
0 -20 -4 -20 -10z"/>
<path d="M920 1209 c0 -5 5 -7 10 -4 6 3 10 8 10 11 0 2 -4 4 -10 4 -5 0 -10
-5 -10 -11z"/>
<path d="M554 1200 c-30 -12 -40 -30 -17 -30 23 0 59 25 47 32 -5 3 -19 2 -30
-2z"/>
<path d="M770 1190 c0 -5 4 -10 9 -10 6 0 13 5 16 10 3 6 -1 10 -9 10 -9 0
-16 -4 -16 -10z"/>
<path d="M880 1190 c0 -5 7 -10 15 -10 8 0 15 5 15 10 0 6 -7 10 -15 10 -8 0
-15 -4 -15 -10z"/>
<path d="M603 1183 c-20 -8 -15 -33 6 -33 17 0 51 24 51 36 0 5 -42 4 -57 -3z"/>
<path d="M941 1174 c0 -11 3 -14 6 -6 3 7 2 16 -1 19 -3 4 -6 -2 -5 -13z"/>
<path d="M369 1163 c-13 -15 -12 -15 9 -4 23 12 28 21 13 21 -5 0 -15 -7 -22
-17z"/>
<path d="M826 1171 c-7 -11 18 -33 27 -24 4 3 7 12 7 20 0 15 -26 18 -34 4z"/>
<path d="M405 1160 c-3 -6 1 -7 9 -4 18 7 21 14 7 14 -6 0 -13 -4 -16 -10z"/>
<path d="M452 1154 c-23 -16 -29 -34 -13 -34 6 0 23 11 38 25 32 28 12 35 -25
9z"/>
<path d="M523 1145 c-43 -18 -61 -52 -37 -69 15 -12 15 -13 0 -19 -20 -8 -21
-47 -2 -47 16 0 46 26 46 41 0 5 -4 9 -10 9 -20 0 -9 15 20 28 29 13 47 43 35
62 -8 13 -13 12 -52 -5z"/>
<path d="M903 1153 c-16 -6 -5 -33 13 -33 8 0 14 6 14 14 0 18 -11 25 -27 19z"/>
<path d="M990 1151 c0 -6 5 -13 10 -16 6 -3 10 1 10 9 0 9 -4 16 -10 16 -5 0
-10 -4 -10 -9z"/>
<path d="M762 1134 c-12 -8 -20 -20 -17 -25 10 -15 45 -10 52 7 9 25 -10 36
-35 18z"/>
<path d="M1046 1125 c4 -8 8 -15 10 -15 2 0 4 7 4 15 0 8 -4 15 -10 15 -5 0
-7 -7 -4 -15z"/>
<path d="M359 1107 c-36 -24 -51 -57 -26 -57 19 0 67 46 67 65 0 19 -1 19 -41
-8z"/>
<path d="M598 1119 c-21 -12 -23 -35 -4 -42 18 -7 56 20 56 39 0 16 -27 18
-52 3z"/>
<path d="M957 1123 c-21 -20 13 -76 39 -66 19 7 18 38 -2 57 -17 17 -27 20
-37 9z"/>
<path d="M293 1102 c2 -27 18 -28 42 -2 16 17 16 20 2 20 -9 0 -19 -5 -23 -11
-4 -8 -9 -7 -15 2 -6 10 -8 7 -6 -9z"/>
<path d="M842 1107 c-31 -14 -39 -53 -17 -77 25 -28 61 -25 81 5 31 47 -12 95
-64 72z"/>
<path d="M1080 1109 c0 -18 44 -69 60 -69 10 0 10 3 0 15 -6 8 -8 20 -4 27 4
7 3 10 -1 5 -5 -4 -19 3 -32 15 -16 15 -23 17 -23 7z"/>
<path d="M410 1080 c-25 -25 -26 -40 -2 -40 21 0 52 29 52 48 0 19 -28 14 -50
-8z"/>
<path d="M672 1088 c-16 -16 -15 -38 2 -38 28 0 46 12 46 31 0 22 -29 26 -48
7z"/>
<path d="M1032 1088 c2 -6 10 -14 16 -16 7 -2 10 2 6 12 -7 18 -28 22 -22 4z"/>
<path d="M747 1063 c-12 -11 -8 -41 7 -46 17 -7 36 11 36 35 0 18 -29 25 -43
11z"/>
<path d="M246 1053 c-4 -5 -12 -8 -17 -8 -5 0 -9 -3 -9 -7 0 -5 0 -13 0 -20 0
-7 10 -3 22 10 12 12 20 24 17 27 -3 3 -9 2 -13 -2z"/>
<path d="M270 1035 c-12 -13 -20 -29 -18 -35 2 -6 16 2 31 18 16 17 24 32 19
36 -5 3 -19 -5 -32 -19z"/>
<path d="M566 1029 c-35 -27 -32 -63 5 -67 36 -4 74 41 58 69 -13 25 -30 24
-63 -2z"/>
<path d="M317 1006 c-9 -10 -14 -22 -11 -28 8 -13 38 16 32 32 -3 9 -9 8 -21
-4z"/>
<path d="M389 999 c-25 -25 -21 -55 6 -51 29 5 59 38 52 56 -9 22 -33 20 -58
-5z"/>
<path d="M661 1003 c-39 -27 -17 -93 26 -79 10 3 24 15 31 27 27 43 -15 82
-57 52z"/>
<path d="M475 970 c-23 -25 -8 -46 25 -35 14 5 20 13 18 28 -4 28 -21 31 -43
7z"/>
<path d="M195 956 c-9 -14 -15 -31 -13 -38 3 -7 12 2 22 20 21 41 14 54 -9 18z"/>
<path d="M160 948 c-12 -22 -12 -22 6 -6 10 10 15 20 12 24 -4 3 -12 -5 -18
-18z"/>
<path d="M236 925 c-3 -8 -1 -15 3 -15 5 0 11 7 15 15 3 8 1 15 -3 15 -5 0
-11 -7 -15 -15z"/>
<path d="M295 916 c-17 -25 -15 -56 3 -56 14 0 40 33 44 55 5 30 -28 31 -47 1z"/>
<path d="M374 895 c-28 -29 -29 -62 -1 -79 15 -9 23 -6 43 17 29 34 31 63 4
77 -17 9 -25 6 -46 -15z"/>
<path d="M510 911 c-16 -4 -32 -20 -43 -44 -17 -35 -18 -39 -3 -62 19 -29 49
-29 82 2 46 43 20 118 -36 104z"/>
<path d="M171 872 c-6 -11 -11 -30 -11 -41 0 -29 27 -16 35 16 8 34 -9 52 -24
25z"/>
<path d="M231 873 c-26 -22 -42 -74 -29 -96 23 -42 91 51 68 93 -13 24 -13 24
-39 3z"/>
<path d="M292 798 c-14 -14 -16 -44 -3 -53 13 -8 43 24 39 43 -4 20 -21 25
-36 10z"/>
<path d="M90 776 c0 -31 6 -34 13 -6 3 11 1 23 -4 26 -5 3 -9 -6 -9 -20z"/>
<path d="M384 775 c-18 -27 -13 -52 12 -62 31 -11 64 47 41 75 -15 19 -35 14
-53 -13z"/>
<path d="M783 790 c-72 -16 -111 -69 -99 -133 8 -44 31 -64 117 -101 69 -30
85 -50 44 -52 -11 -1 -26 -2 -33 -3 -7 0 -13 -11 -12 -23 5 -54 2 -58 -36 -53
-20 2 -45 7 -55 10 -14 5 -22 0 -29 -20 -17 -45 -14 -47 82 -58 15 -2 30 -6
33 -9 4 -3 7 -38 7 -78 1 -66 2 -71 22 -68 18 3 21 9 19 58 l-1 55 51 1 c44 2
55 6 79 33 34 38 37 83 8 126 -11 17 -20 40 -20 52 0 30 -46 65 -118 92 -64
23 -71 28 -77 61 -8 41 66 63 142 41 25 -7 33 -6 37 6 12 31 6 53 -16 58 -43
10 -113 12 -145 5z m97 -323 c0 -2 -9 -12 -19 -22 -19 -16 -20 -16 -18 4 1 13
8 21 19 21 10 0 18 -2 18 -3z m76 -64 c-10 -38 -33 -53 -80 -52 l-41 0 40 18
c22 10 49 28 59 40 25 28 30 27 22 -6z"/>
<path d="M115 770 c-4 -12 -5 -24 -2 -27 3 -2 8 5 12 17 4 12 5 24 2 27 -3 2
-8 -5 -12 -17z"/>
<path d="M156 755 c-9 -24 -7 -45 3 -45 5 0 13 9 16 21 8 26 -9 48 -19 24z"/>
<path d="M216 724 c-9 -23 -7 -52 3 -58 21 -13 41 7 41 40 0 27 -4 34 -19 34
-10 0 -22 -7 -25 -16z"/>
<path d="M90 694 c0 -8 -4 -12 -10 -9 -5 3 -10 1 -10 -4 0 -6 5 -11 11 -11 5
0 8 -4 4 -9 -3 -5 -1 -12 5 -16 6 -4 10 8 10 29 0 20 -2 36 -5 36 -3 0 -5 -7
-5 -16z"/>
<path d="M301 696 c-7 -8 -11 -27 -9 -43 4 -39 48 -40 62 -1 16 44 -25 77 -53
44z"/>
<path d="M125 680 c-14 -22 -17 -58 -5 -65 13 -8 22 16 18 52 -2 22 -5 25 -13
13z"/>
<path d="M396 664 c-21 -20 -20 -63 0 -71 37 -14 70 41 44 73 -16 18 -25 18
-44 -2z"/>
<path d="M165 640 c-7 -23 2 -60 15 -60 15 0 27 31 22 56 -5 29 -28 32 -37 4z"/>
<path d="M242 628 c-31 -31 0 -105 33 -78 25 21 14 90 -15 90 -3 0 -11 -5 -18
-12z"/>
<path d="M70 590 c0 -5 5 -10 11 -10 5 0 7 5 4 10 -3 6 -8 10 -11 10 -2 0 -4
-4 -4 -10z"/>
<path d="M92 569 c-8 -12 -9 -18 -3 -15 5 3 12 -2 14 -11 3 -10 5 -3 6 15 1
38 0 39 -17 11z"/>
<path d="M324 576 c-8 -22 3 -49 19 -43 6 2 12 14 12 27 0 27 -22 39 -31 16z"/>
<path d="M135 560 c-9 -15 3 -60 15 -60 13 0 13 57 1 65 -5 3 -13 0 -16 -5z"/>
<path d="M444 552 c-18 -11 -34 -49 -34 -77 0 -29 40 -75 65 -75 29 0 65 46
65 85 0 55 -55 94 -96 67z"/>
<path d="M190 506 c0 -36 26 -58 36 -31 9 23 -5 65 -21 65 -10 0 -15 -11 -15
-34z"/>
<path d="M92 489 c6 -16 12 -28 14 -26 5 5 -13 57 -20 57 -3 0 0 -14 6 -31z"/>
<path d="M264 486 c-6 -25 10 -66 26 -66 15 0 30 37 23 57 -14 38 -40 43 -49
9z"/>
<path d="M121 480 c-1 -27 14 -58 24 -48 3 3 -1 21 -9 39 -13 31 -14 32 -15 9z"/>
<path d="M337 473 c-12 -11 -8 -50 7 -62 30 -25 57 10 40 53 -6 16 -35 22 -47
9z"/>
<path d="M167 463 c-9 -14 13 -74 24 -67 5 3 9 13 9 23 0 24 -25 57 -33 44z"/>
<path d="M127 386 c20 -26 27 -28 17 -3 -3 8 -12 18 -20 21 -11 4 -10 0 3 -18z"/>
<path d="M240 401 c0 -6 5 -13 10 -16 6 -3 10 1 10 9 0 9 -4 16 -10 16 -5 0
-10 -4 -10 -9z"/>
<path d="M304 385 c-9 -21 13 -68 29 -63 22 8 20 56 -3 68 -16 9 -22 8 -26 -5z"/>
<path d="M160 369 c0 -9 7 -22 15 -29 19 -16 19 0 0 26 -12 16 -14 16 -15 3z"/>
<path d="M205 368 c-4 -9 -2 -25 4 -36 6 -12 8 -27 5 -36 -3 -8 1 -25 10 -38
18 -26 22 -7 5 24 -10 18 -9 20 5 15 23 -9 21 35 -3 64 -17 21 -20 22 -26 7z"/>
<path d="M402 368 c-27 -27 -7 -78 29 -78 26 0 34 37 15 65 -18 28 -27 30 -44
13z"/>
<path d="M270 307 c0 -25 17 -47 36 -47 15 0 10 35 -7 56 -17 21 -29 17 -29
-9z"/>
<path d="M487 323 c-13 -12 -7 -44 8 -49 24 -10 47 14 34 37 -10 19 -30 25
-42 12z"/>
<path d="M171 315 c0 -5 6 -19 14 -29 8 -11 15 -15 15 -10 0 6 -7 19 -15 30
-8 10 -14 15 -14 9z"/>
<path d="M347 283 c-3 -5 -2 -15 2 -22 7 -10 10 -10 16 -1 4 6 3 16 -3 22 -5
5 -12 6 -15 1z"/>
<path d="M260 252 c0 -5 7 -15 15 -22 8 -7 15 -8 15 -2 0 5 -7 15 -15 22 -8 7
-15 8 -15 2z"/>
<path d="M310 236 c0 -8 9 -24 19 -37 15 -19 22 -21 32 -12 9 9 8 17 -5 37
-18 28 -46 35 -46 12z"/>
<path d="M423 234 c-7 -18 23 -47 38 -38 15 9 10 42 -7 48 -22 9 -24 8 -31
-10z"/>
<path d="M230 218 c25 -24 38 -29 25 -9 -3 6 -16 16 -28 22 -20 11 -20 9 3
-13z"/>
<path d="M510 221 c-7 -15 -5 -24 8 -41 16 -19 22 -21 40 -11 24 13 29 40 10
59 -18 18 -46 14 -58 -7z"/>
<path d="M270 202 c0 -5 7 -15 15 -22 8 -7 15 -8 15 -2 0 5 -7 15 -15 22 -8 7
-15 8 -15 2z"/>
<path d="M385 191 c-3 -5 2 -17 11 -26 13 -13 19 -14 25 -4 4 8 3 19 -3 26
-12 15 -25 17 -33 4z"/>
<path d="M310 170 c0 -5 5 -10 10 -10 6 0 9 -5 8 -11 -2 -6 12 -22 30 -36 17
-14 32 -20 32 -14 0 6 -12 16 -26 21 -14 6 -22 15 -19 20 7 12 -12 40 -26 40
-5 0 -9 -4 -9 -10z"/>
<path d="M440 150 c-18 -34 27 -80 60 -60 18 11 19 43 2 63 -20 23 -49 22 -62
-3z"/>
<path d="M366 152 c-7 -12 22 -38 31 -28 4 3 0 14 -9 22 -9 10 -18 12 -22 6z"/>
<path d="M533 125 c-7 -20 0 -27 20 -19 9 3 13 12 10 20 -7 19 -22 18 -30 -1z"/>
<path d="M603 105 c-3 -9 -3 -18 0 -22 11 -10 57 7 57 22 0 20 -49 20 -57 0z"/>
<path d="M676 91 c-21 -24 -6 -36 32 -26 25 6 42 21 42 38 0 15 -58 6 -74 -12z"/>
<path d="M410 84 c0 -8 5 -12 10 -9 6 4 8 11 5 16 -9 14 -15 11 -15 -7z"/>
<path d="M450 70 c0 -5 7 -10 16 -10 8 0 12 5 9 10 -3 6 -10 10 -16 10 -5 0
-9 -4 -9 -10z"/>
<path d="M535 70 c-3 -5 3 -10 15 -10 12 0 18 5 15 10 -3 6 -10 10 -15 10 -5
0 -12 -4 -15 -10z"/>
<path d="M600 50 c-13 -8 -12 -10 3 -10 9 0 17 5 17 10 0 12 -1 12 -20 0z"/>
<path d="M645 30 c-3 -6 1 -7 9 -4 18 7 21 14 7 14 -6 0 -13 -4 -16 -10z"/>
</g>
</svg>
